<svg width="63" height="37" viewBox="0 0 63 37" fill="none" xmlns="http://www.w3.org/2000/svg">
<path d="M16.7 1.28V1.68C16.2733 1.69333 15.9467 1.74667 15.72 1.84C15.4933 1.92 15.34 2.08 15.26 2.32C15.1933 2.54667 15.16 2.90667 15.16 3.4V13.32C15.16 13.8 15.2 14.16 15.28 14.4C15.36 14.64 15.5067 14.8 15.72 14.88C15.9467 14.96 16.2733 15.0133 16.7 15.04V15.44C16.3533 15.4133 15.9133 15.4 15.38 15.4C14.8467 15.3867 14.3067 15.38 13.76 15.38C13.16 15.38 12.5933 15.3867 12.06 15.4C11.54 15.4 11.12 15.4133 10.8 15.44V15.04C11.2533 15.0133 11.5933 14.96 11.82 14.88C12.06 14.8 12.22 14.64 12.3 14.4C12.38 14.16 12.42 13.8 12.42 13.32V2.44L12.56 2.46L7.6 15.5H7.28L2 2.56V12.48C2 13.12 2.04 13.62 2.12 13.98C2.2 14.3267 2.37333 14.58 2.64 14.74C2.92 14.8867 3.34 14.9867 3.9 15.04V15.44C3.64667 15.4133 3.32 15.4 2.92 15.4C2.52 15.3867 2.14 15.38 1.78 15.38C1.46 15.38 1.13333 15.3867 0.8 15.4C0.48 15.4 0.213333 15.4133 0 15.44V15.04C0.44 14.9867 0.766667 14.8867 0.98 14.74C1.20667 14.5933 1.35333 14.3533 1.42 14.02C1.5 13.6867 1.54 13.2267 1.54 12.64V3.4C1.54 2.90667 1.5 2.54667 1.42 2.32C1.35333 2.08 1.20667 1.92 0.98 1.84C0.766667 1.74667 0.44 1.69333 0 1.68V1.28C0.213333 1.29333 0.48 1.30667 0.8 1.32C1.13333 1.33333 1.46 1.34 1.78 1.34C2.27333 1.34 2.75333 1.33333 3.22 1.32C3.68667 1.30667 4.1 1.29333 4.46 1.28L8.76 12.02L8.32 12.38L12.5 1.34C12.7 1.34 12.9067 1.34 13.12 1.34C13.3467 1.34 13.56 1.34 13.76 1.34C14.3067 1.34 14.8467 1.33333 15.38 1.32C15.9133 1.30667 16.3533 1.29333 16.7 1.28Z" fill="#498300"/>
<path d="M20.4436 0C20.9236 0 21.3169 0.133333 21.6236 0.4C21.9303 0.666666 22.0836 1.02 22.0836 1.46C22.0836 1.9 21.9303 2.25333 21.6236 2.52C21.3169 2.78667 20.9236 2.92 20.4436 2.92C19.9636 2.92 19.5703 2.78667 19.2636 2.52C18.9569 2.25333 18.8036 1.9 18.8036 1.46C18.8036 1.02 18.9569 0.666666 19.2636 0.4C19.5703 0.133333 19.9636 0 20.4436 0ZM21.8436 4.88V13.58C21.8436 14.14 21.9436 14.52 22.1436 14.72C22.3569 14.92 22.7103 15.02 23.2036 15.02V15.44C22.9636 15.4267 22.5969 15.4133 22.1036 15.4C21.6103 15.3733 21.1103 15.36 20.6036 15.36C20.1103 15.36 19.6103 15.3733 19.1036 15.4C18.5969 15.4133 18.2169 15.4267 17.9636 15.44V15.02C18.4569 15.02 18.8036 14.92 19.0036 14.72C19.2169 14.52 19.3236 14.14 19.3236 13.58V7.3C19.3236 6.68667 19.2236 6.24 19.0236 5.96C18.8369 5.66667 18.4836 5.52 17.9636 5.52V5.1C18.3903 5.14 18.8036 5.16 19.2036 5.16C19.6969 5.16 20.1636 5.14 20.6036 5.1C21.0569 5.04667 21.4703 4.97333 21.8436 4.88Z" fill="#498300"/>
<path d="M15.892 17C17.036 17 17.972 17.1733 18.7 17.52C19.4453 17.8493 20.104 18.2393 20.676 18.69C21.0227 18.95 21.2827 18.9847 21.456 18.794C21.6467 18.586 21.7767 18.1093 21.846 17.364H22.444C22.4093 18.0227 22.3833 18.8287 22.366 19.782C22.3487 20.7353 22.34 21.992 22.34 23.552H21.742C21.638 22.772 21.5253 22.122 21.404 21.602C21.2827 21.0647 21.1093 20.6053 20.884 20.224C20.676 19.8427 20.3813 19.4787 20 19.132C19.532 18.612 18.9687 18.2307 18.31 17.988C17.6687 17.728 16.9927 17.598 16.282 17.598C15.3807 17.598 14.592 17.8407 13.916 18.326C13.2573 18.794 12.7027 19.444 12.252 20.276C11.8187 21.0907 11.4893 22.044 11.264 23.136C11.056 24.228 10.952 25.3893 10.952 26.62C10.952 27.8853 11.0647 29.064 11.29 30.156C11.5327 31.2307 11.8793 32.1753 12.33 32.99C12.798 33.7873 13.37 34.4113 14.046 34.862C14.7393 35.3127 15.5367 35.538 16.438 35.538C17.0793 35.538 17.738 35.4167 18.414 35.174C19.09 34.9313 19.6447 34.5587 20.078 34.056C20.65 33.536 21.04 32.9207 21.248 32.21C21.456 31.482 21.6207 30.52 21.742 29.324H22.34C22.34 30.9533 22.3487 32.2707 22.366 33.276C22.3833 34.264 22.4093 35.096 22.444 35.772H21.846C21.7767 35.0267 21.6553 34.5587 21.482 34.368C21.326 34.1773 21.0573 34.2033 20.676 34.446C20.0347 34.8967 19.35 35.2953 18.622 35.642C17.9113 35.9713 16.9927 36.136 15.866 36.136C14.098 36.136 12.5467 35.7633 11.212 35.018C9.87733 34.2727 8.83733 33.198 8.092 31.794C7.364 30.39 7 28.7 7 26.724C7 24.7827 7.38133 23.084 8.144 21.628C8.90667 20.172 9.95533 19.0367 11.29 18.222C12.6247 17.4073 14.1587 17 15.892 17Z" fill="#498300"/>
<path d="M28.2991 35.954C27.5537 35.954 26.9211 35.8153 26.4011 35.538C25.8811 35.2433 25.4911 34.8533 25.2311 34.368C24.9711 33.8653 24.8411 33.3107 24.8411 32.704C24.8411 31.9587 25.0144 31.352 25.3611 30.884C25.7077 30.3987 26.1497 30.0173 26.6871 29.74C27.2417 29.4453 27.8224 29.2027 28.4291 29.012C29.0357 28.804 29.6077 28.6133 30.1451 28.44C30.6824 28.2493 31.1244 28.0327 31.4711 27.79C31.8177 27.5473 31.9911 27.2267 31.9911 26.828V24.93C31.9911 24.3753 31.9044 23.9247 31.7311 23.578C31.5751 23.214 31.3324 22.9453 31.0031 22.772C30.6911 22.5813 30.2924 22.486 29.8071 22.486C29.4431 22.486 29.0617 22.538 28.6631 22.642C28.2644 22.746 27.9351 22.9453 27.6751 23.24C28.1257 23.3613 28.4724 23.5867 28.7151 23.916C28.9751 24.2453 29.1051 24.644 29.1051 25.112C29.1051 25.6493 28.9231 26.074 28.5591 26.386C28.2124 26.6807 27.7704 26.828 27.2331 26.828C26.6611 26.828 26.2277 26.646 25.9331 26.282C25.6384 25.918 25.4911 25.4933 25.4911 25.008C25.4911 24.5227 25.6124 24.124 25.8551 23.812C26.0977 23.4827 26.4357 23.188 26.8691 22.928C27.3024 22.6333 27.8571 22.3993 28.5331 22.226C29.2091 22.0527 29.9457 21.966 30.7431 21.966C31.5057 21.966 32.1817 22.0527 32.7711 22.226C33.3604 22.382 33.8631 22.668 34.2791 23.084C34.6951 23.4827 34.9637 23.9767 35.0851 24.566C35.2064 25.1553 35.2671 25.8747 35.2671 26.724V33.848C35.2671 34.2813 35.3191 34.5933 35.4231 34.784C35.5271 34.9573 35.6917 35.044 35.9171 35.044C36.0904 35.044 36.2551 35.0007 36.4111 34.914C36.5671 34.8273 36.7404 34.706 36.9311 34.55L37.2171 34.992C36.8357 35.2867 36.4371 35.5207 36.0211 35.694C35.6051 35.8673 35.1024 35.954 34.5131 35.954C33.9064 35.954 33.4211 35.8673 33.0571 35.694C32.7104 35.5207 32.4504 35.2693 32.2771 34.94C32.1211 34.6107 32.0344 34.2207 32.0171 33.77C31.6011 34.4633 31.0897 35.0007 30.4831 35.382C29.8764 35.7633 29.1484 35.954 28.2991 35.954ZM29.8591 34.498C30.2751 34.498 30.6564 34.3853 31.0031 34.16C31.3671 33.9347 31.6964 33.5967 31.9911 33.146V27.894C31.8177 28.154 31.5664 28.388 31.2371 28.596C30.9251 28.804 30.5871 29.012 30.2231 29.22C29.8591 29.428 29.5124 29.6707 29.1831 29.948C28.8711 30.208 28.6024 30.5373 28.3771 30.936C28.1691 31.3173 28.0651 31.8113 28.0651 32.418C28.0651 33.094 28.2297 33.614 28.5591 33.978C28.8884 34.3247 29.3217 34.498 29.8591 34.498Z" fill="#498300"/>
<path d="M42.9304 21.966C43.6584 21.966 44.2824 22.07 44.8024 22.278C45.3224 22.486 45.7037 22.668 45.9464 22.824C46.5357 23.2573 46.891 22.98 47.0124 21.992H47.5844C47.5497 22.4947 47.5237 23.0927 47.5064 23.786C47.489 24.462 47.4804 25.372 47.4804 26.516H46.9084C46.8217 25.8747 46.657 25.2507 46.4144 24.644C46.1717 24.0373 45.8164 23.5347 45.3484 23.136C44.8804 22.72 44.265 22.512 43.5024 22.512C42.965 22.512 42.5144 22.668 42.1504 22.98C41.8037 23.292 41.6304 23.734 41.6304 24.306C41.6304 24.826 41.7864 25.2853 42.0984 25.684C42.4104 26.0653 42.809 26.4293 43.2944 26.776C43.797 27.1053 44.317 27.4693 44.8544 27.868C45.4784 28.284 46.033 28.7087 46.5184 29.142C47.0037 29.558 47.3937 30.026 47.6884 30.546C47.983 31.0487 48.1304 31.6467 48.1304 32.34C48.1304 33.1373 47.905 33.822 47.4544 34.394C47.021 34.9487 46.4404 35.382 45.7124 35.694C45.0017 35.9887 44.213 36.136 43.3464 36.136C42.8784 36.136 42.4537 36.0927 42.0724 36.006C41.691 35.9193 41.353 35.8067 41.0584 35.668C40.833 35.5467 40.625 35.434 40.4344 35.33C40.261 35.226 40.079 35.1393 39.8884 35.07C39.715 34.9833 39.559 35.018 39.4204 35.174C39.299 35.33 39.2037 35.59 39.1344 35.954H38.5624C38.597 35.3993 38.623 34.7233 38.6404 33.926C38.6577 33.1287 38.6664 32.0713 38.6664 30.754H39.2384C39.3597 31.7073 39.5417 32.548 39.7844 33.276C40.0444 33.9867 40.417 34.55 40.9024 34.966C41.3877 35.3647 42.0117 35.564 42.7744 35.564C43.1037 35.564 43.4157 35.4947 43.7104 35.356C44.0224 35.2173 44.2737 35.0007 44.4644 34.706C44.6724 34.4113 44.7764 34.0127 44.7764 33.51C44.7764 32.7473 44.5164 32.1147 43.9964 31.612C43.4764 31.1093 42.8264 30.572 42.0464 30C41.457 29.5667 40.9024 29.142 40.3824 28.726C39.8797 28.31 39.4637 27.842 39.1344 27.322C38.8224 26.802 38.6664 26.1867 38.6664 25.476C38.6664 24.696 38.8657 24.0547 39.2644 23.552C39.663 23.032 40.183 22.642 40.8244 22.382C41.483 22.1047 42.185 21.966 42.9304 21.966Z" fill="#498300"/>
<path d="M53.4612 35.954C52.7159 35.954 52.0832 35.8153 51.5632 35.538C51.0432 35.2433 50.6532 34.8533 50.3932 34.368C50.1332 33.8653 50.0032 33.3107 50.0032 32.704C50.0032 31.9587 50.1765 31.352 50.5232 30.884C50.8699 30.3987 51.3119 30.0173 51.8492 29.74C52.4039 29.4453 52.9845 29.2027 53.5912 29.012C54.1979 28.804 54.7699 28.6133 55.3072 28.44C55.8445 28.2493 56.2865 28.0327 56.6332 27.79C56.9799 27.5473 57.1532 27.2267 57.1532 26.828V24.93C57.1532 24.3753 57.0665 23.9247 56.8932 23.578C56.7372 23.214 56.4945 22.9453 56.1652 22.772C55.8532 22.5813 55.4545 22.486 54.9692 22.486C54.6052 22.486 54.2239 22.538 53.8252 22.642C53.4265 22.746 53.0972 22.9453 52.8372 23.24C53.2879 23.3613 53.6345 23.5867 53.8772 23.916C54.1372 24.2453 54.2672 24.644 54.2672 25.112C54.2672 25.6493 54.0852 26.074 53.7212 26.386C53.3745 26.6807 52.9325 26.828 52.3952 26.828C51.8232 26.828 51.3899 26.646 51.0952 26.282C50.8005 25.918 50.6532 25.4933 50.6532 25.008C50.6532 24.5227 50.7745 24.124 51.0172 23.812C51.2599 23.4827 51.5979 23.188 52.0312 22.928C52.4645 22.6333 53.0192 22.3993 53.6952 22.226C54.3712 22.0527 55.1079 21.966 55.9052 21.966C56.6679 21.966 57.3439 22.0527 57.9332 22.226C58.5225 22.382 59.0252 22.668 59.4412 23.084C59.8572 23.4827 60.1259 23.9767 60.2472 24.566C60.3685 25.1553 60.4292 25.8747 60.4292 26.724V33.848C60.4292 34.2813 60.4812 34.5933 60.5852 34.784C60.6892 34.9573 60.8539 35.044 61.0792 35.044C61.2525 35.044 61.4172 35.0007 61.5732 34.914C61.7292 34.8273 61.9025 34.706 62.0932 34.55L62.3792 34.992C61.9979 35.2867 61.5992 35.5207 61.1832 35.694C60.7672 35.8673 60.2645 35.954 59.6752 35.954C59.0685 35.954 58.5832 35.8673 58.2192 35.694C57.8725 35.5207 57.6125 35.2693 57.4392 34.94C57.2832 34.6107 57.1965 34.2207 57.1792 33.77C56.7632 34.4633 56.2519 35.0007 55.6452 35.382C55.0385 35.7633 54.3105 35.954 53.4612 35.954ZM55.0212 34.498C55.4372 34.498 55.8185 34.3853 56.1652 34.16C56.5292 33.9347 56.8585 33.5967 57.1532 33.146V27.894C56.9799 28.154 56.7285 28.388 56.3992 28.596C56.0872 28.804 55.7492 29.012 55.3852 29.22C55.0212 29.428 54.6745 29.6707 54.3452 29.948C54.0332 30.208 53.7645 30.5373 53.5392 30.936C53.3312 31.3173 53.2272 31.8113 53.2272 32.418C53.2272 33.094 53.3919 33.614 53.7212 33.978C54.0505 34.3247 54.4839 34.498 55.0212 34.498Z" fill="#498300"/>
</svg>
