<svg width="63" height="37" viewBox="0 0 63 37" fill="none" xmlns="http://www.w3.org/2000/svg">
<path d="M17.0792 1.28V1.68C16.6525 1.69333 16.3258 1.74667 16.0992 1.84C15.8725 1.92 15.7192 2.08 15.6392 2.32C15.5725 2.54667 15.5392 2.90667 15.5392 3.4V13.32C15.5392 13.8 15.5792 14.16 15.6592 14.4C15.7392 14.64 15.8858 14.8 16.0992 14.88C16.3258 14.96 16.6525 15.0133 17.0792 15.04V15.44C16.7325 15.4133 16.2925 15.4 15.7592 15.4C15.2258 15.3867 14.6858 15.38 14.1392 15.38C13.5392 15.38 12.9725 15.3867 12.4392 15.4C11.9192 15.4 11.4992 15.4133 11.1792 15.44V15.04C11.6325 15.0133 11.9725 14.96 12.1992 14.88C12.4392 14.8 12.5992 14.64 12.6792 14.4C12.7592 14.16 12.7992 13.8 12.7992 13.32V2.44L12.9392 2.46L7.97918 15.5H7.65918L2.37918 2.56V12.48C2.37918 13.12 2.41918 13.62 2.49918 13.98C2.57918 14.3267 2.75251 14.58 3.01918 14.74C3.29918 14.8867 3.71918 14.9867 4.27918 15.04V15.44C4.02585 15.4133 3.69918 15.4 3.29918 15.4C2.89918 15.3867 2.51918 15.38 2.15918 15.38C1.83918 15.38 1.51251 15.3867 1.17918 15.4C0.859181 15.4 0.592514 15.4133 0.379181 15.44V15.04C0.819181 14.9867 1.14585 14.8867 1.35918 14.74C1.58585 14.5933 1.73251 14.3533 1.79918 14.02C1.87918 13.6867 1.91918 13.2267 1.91918 12.64V3.4C1.91918 2.90667 1.87918 2.54667 1.79918 2.32C1.73251 2.08 1.58585 1.92 1.35918 1.84C1.14585 1.74667 0.819181 1.69333 0.379181 1.68V1.28C0.592514 1.29333 0.859181 1.30667 1.17918 1.32C1.51251 1.33333 1.83918 1.34 2.15918 1.34C2.65251 1.34 3.13251 1.33333 3.59918 1.32C4.06585 1.30667 4.47918 1.29333 4.83918 1.28L9.13918 12.02L8.69918 12.38L12.8792 1.34C13.0792 1.34 13.2858 1.34 13.4992 1.34C13.7258 1.34 13.9392 1.34 14.1392 1.34C14.6858 1.34 15.2258 1.33333 15.7592 1.32C16.2925 1.30667 16.7325 1.29333 17.0792 1.28Z" fill="#FDFDFD"/>
<path d="M20.8228 0C21.3028 0 21.6961 0.133333 22.0028 0.4C22.3094 0.666666 22.4628 1.02 22.4628 1.46C22.4628 1.9 22.3094 2.25333 22.0028 2.52C21.6961 2.78667 21.3028 2.92 20.8228 2.92C20.3428 2.92 19.9494 2.78667 19.6428 2.52C19.3361 2.25333 19.1828 1.9 19.1828 1.46C19.1828 1.02 19.3361 0.666666 19.6428 0.4C19.9494 0.133333 20.3428 0 20.8228 0ZM22.2228 4.88V13.58C22.2228 14.14 22.3228 14.52 22.5228 14.72C22.7361 14.92 23.0894 15.02 23.5828 15.02V15.44C23.3428 15.4267 22.9761 15.4133 22.4828 15.4C21.9894 15.3733 21.4894 15.36 20.9828 15.36C20.4894 15.36 19.9894 15.3733 19.4828 15.4C18.9761 15.4133 18.5961 15.4267 18.3428 15.44V15.02C18.8361 15.02 19.1828 14.92 19.3828 14.72C19.5961 14.52 19.7028 14.14 19.7028 13.58V7.3C19.7028 6.68667 19.6028 6.24 19.4028 5.96C19.2161 5.66667 18.8628 5.52 18.3428 5.52V5.1C18.7694 5.14 19.1828 5.16 19.5828 5.16C20.0761 5.16 20.5428 5.14 20.9828 5.1C21.4361 5.04667 21.8494 4.97333 22.2228 4.88Z" fill="#FDFDFD"/>
<path d="M16.2712 17C17.4152 17 18.3512 17.1733 19.0792 17.52C19.8245 17.8493 20.4832 18.2393 21.0552 18.69C21.4018 18.95 21.6618 18.9847 21.8352 18.794C22.0258 18.586 22.1558 18.1093 22.2252 17.364H22.8232C22.7885 18.0227 22.7625 18.8287 22.7452 19.782C22.7278 20.7353 22.7192 21.992 22.7192 23.552H22.1212C22.0172 22.772 21.9045 22.122 21.7832 21.602C21.6618 21.0647 21.4885 20.6053 21.2632 20.224C21.0552 19.8427 20.7605 19.4787 20.3792 19.132C19.9112 18.612 19.3478 18.2307 18.6892 17.988C18.0478 17.728 17.3718 17.598 16.6612 17.598C15.7598 17.598 14.9712 17.8407 14.2952 18.326C13.6365 18.794 13.0818 19.444 12.6312 20.276C12.1978 21.0907 11.8685 22.044 11.6432 23.136C11.4352 24.228 11.3312 25.3893 11.3312 26.62C11.3312 27.8853 11.4438 29.064 11.6692 30.156C11.9118 31.2307 12.2585 32.1753 12.7092 32.99C13.1772 33.7873 13.7492 34.4113 14.4252 34.862C15.1185 35.3127 15.9158 35.538 16.8172 35.538C17.4585 35.538 18.1172 35.4167 18.7932 35.174C19.4692 34.9313 20.0238 34.5587 20.4572 34.056C21.0292 33.536 21.4192 32.9207 21.6272 32.21C21.8352 31.482 21.9998 30.52 22.1212 29.324H22.7192C22.7192 30.9533 22.7278 32.2707 22.7452 33.276C22.7625 34.264 22.7885 35.096 22.8232 35.772H22.2252C22.1558 35.0267 22.0345 34.5587 21.8612 34.368C21.7052 34.1773 21.4365 34.2033 21.0552 34.446C20.4138 34.8967 19.7292 35.2953 19.0012 35.642C18.2905 35.9713 17.3718 36.136 16.2452 36.136C14.4772 36.136 12.9258 35.7633 11.5912 35.018C10.2565 34.2727 9.21651 33.198 8.47118 31.794C7.74318 30.39 7.37918 28.7 7.37918 26.724C7.37918 24.7827 7.76051 23.084 8.52318 21.628C9.28585 20.172 10.3345 19.0367 11.6692 18.222C13.0038 17.4073 14.5378 17 16.2712 17Z" fill="#FDFDFD"/>
<path d="M28.6783 35.954C27.9329 35.954 27.3003 35.8153 26.7803 35.538C26.2603 35.2433 25.8703 34.8533 25.6103 34.368C25.3503 33.8653 25.2203 33.3107 25.2203 32.704C25.2203 31.9587 25.3936 31.352 25.7403 30.884C26.0869 30.3987 26.5289 30.0173 27.0663 29.74C27.6209 29.4453 28.2016 29.2027 28.8083 29.012C29.4149 28.804 29.9869 28.6133 30.5243 28.44C31.0616 28.2493 31.5036 28.0327 31.8503 27.79C32.1969 27.5473 32.3703 27.2267 32.3703 26.828V24.93C32.3703 24.3753 32.2836 23.9247 32.1103 23.578C31.9543 23.214 31.7116 22.9453 31.3823 22.772C31.0703 22.5813 30.6716 22.486 30.1863 22.486C29.8223 22.486 29.4409 22.538 29.0423 22.642C28.6436 22.746 28.3143 22.9453 28.0543 23.24C28.5049 23.3613 28.8516 23.5867 29.0943 23.916C29.3543 24.2453 29.4843 24.644 29.4843 25.112C29.4843 25.6493 29.3023 26.074 28.9383 26.386C28.5916 26.6807 28.1496 26.828 27.6123 26.828C27.0403 26.828 26.6069 26.646 26.3123 26.282C26.0176 25.918 25.8703 25.4933 25.8703 25.008C25.8703 24.5227 25.9916 24.124 26.2343 23.812C26.4769 23.4827 26.8149 23.188 27.2483 22.928C27.6816 22.6333 28.2363 22.3993 28.9123 22.226C29.5883 22.0527 30.3249 21.966 31.1223 21.966C31.8849 21.966 32.5609 22.0527 33.1503 22.226C33.7396 22.382 34.2423 22.668 34.6583 23.084C35.0743 23.4827 35.3429 23.9767 35.4643 24.566C35.5856 25.1553 35.6463 25.8747 35.6463 26.724V33.848C35.6463 34.2813 35.6983 34.5933 35.8023 34.784C35.9063 34.9573 36.0709 35.044 36.2963 35.044C36.4696 35.044 36.6343 35.0007 36.7903 34.914C36.9463 34.8273 37.1196 34.706 37.3103 34.55L37.5963 34.992C37.2149 35.2867 36.8163 35.5207 36.4003 35.694C35.9843 35.8673 35.4816 35.954 34.8923 35.954C34.2856 35.954 33.8003 35.8673 33.4363 35.694C33.0896 35.5207 32.8296 35.2693 32.6563 34.94C32.5003 34.6107 32.4136 34.2207 32.3963 33.77C31.9803 34.4633 31.4689 35.0007 30.8623 35.382C30.2556 35.7633 29.5276 35.954 28.6783 35.954ZM30.2383 34.498C30.6543 34.498 31.0356 34.3853 31.3823 34.16C31.7463 33.9347 32.0756 33.5967 32.3703 33.146V27.894C32.1969 28.154 31.9456 28.388 31.6163 28.596C31.3043 28.804 30.9663 29.012 30.6023 29.22C30.2383 29.428 29.8916 29.6707 29.5623 29.948C29.2503 30.208 28.9816 30.5373 28.7563 30.936C28.5483 31.3173 28.4443 31.8113 28.4443 32.418C28.4443 33.094 28.6089 33.614 28.9383 33.978C29.2676 34.3247 29.7009 34.498 30.2383 34.498Z" fill="#FDFDFD"/>
<path d="M43.3096 21.966C44.0376 21.966 44.6616 22.07 45.1816 22.278C45.7016 22.486 46.0829 22.668 46.3256 22.824C46.9149 23.2573 47.2702 22.98 47.3916 21.992H47.9636C47.9289 22.4947 47.9029 23.0927 47.8856 23.786C47.8682 24.462 47.8596 25.372 47.8596 26.516H47.2876C47.2009 25.8747 47.0362 25.2507 46.7936 24.644C46.5509 24.0373 46.1956 23.5347 45.7276 23.136C45.2596 22.72 44.6442 22.512 43.8816 22.512C43.3442 22.512 42.8936 22.668 42.5296 22.98C42.1829 23.292 42.0096 23.734 42.0096 24.306C42.0096 24.826 42.1656 25.2853 42.4776 25.684C42.7896 26.0653 43.1882 26.4293 43.6736 26.776C44.1762 27.1053 44.6962 27.4693 45.2336 27.868C45.8576 28.284 46.4122 28.7087 46.8976 29.142C47.3829 29.558 47.7729 30.026 48.0676 30.546C48.3622 31.0487 48.5096 31.6467 48.5096 32.34C48.5096 33.1373 48.2842 33.822 47.8336 34.394C47.4002 34.9487 46.8196 35.382 46.0916 35.694C45.3809 35.9887 44.5922 36.136 43.7256 36.136C43.2576 36.136 42.8329 36.0927 42.4516 36.006C42.0702 35.9193 41.7322 35.8067 41.4376 35.668C41.2122 35.5467 41.0042 35.434 40.8136 35.33C40.6402 35.226 40.4582 35.1393 40.2676 35.07C40.0942 34.9833 39.9382 35.018 39.7996 35.174C39.6782 35.33 39.5829 35.59 39.5136 35.954H38.9416C38.9762 35.3993 39.0022 34.7233 39.0196 33.926C39.0369 33.1287 39.0456 32.0713 39.0456 30.754H39.6176C39.7389 31.7073 39.9209 32.548 40.1636 33.276C40.4236 33.9867 40.7962 34.55 41.2816 34.966C41.7669 35.3647 42.3909 35.564 43.1536 35.564C43.4829 35.564 43.7949 35.4947 44.0896 35.356C44.4016 35.2173 44.6529 35.0007 44.8436 34.706C45.0516 34.4113 45.1556 34.0127 45.1556 33.51C45.1556 32.7473 44.8956 32.1147 44.3756 31.612C43.8556 31.1093 43.2056 30.572 42.4256 30C41.8362 29.5667 41.2816 29.142 40.7616 28.726C40.2589 28.31 39.8429 27.842 39.5136 27.322C39.2016 26.802 39.0456 26.1867 39.0456 25.476C39.0456 24.696 39.2449 24.0547 39.6436 23.552C40.0422 23.032 40.5622 22.642 41.2036 22.382C41.8622 22.1047 42.5642 21.966 43.3096 21.966Z" fill="#FDFDFD"/>
<path d="M53.8404 35.954C53.095 35.954 52.4624 35.8153 51.9424 35.538C51.4224 35.2433 51.0324 34.8533 50.7724 34.368C50.5124 33.8653 50.3824 33.3107 50.3824 32.704C50.3824 31.9587 50.5557 31.352 50.9024 30.884C51.249 30.3987 51.691 30.0173 52.2284 29.74C52.783 29.4453 53.3637 29.2027 53.9704 29.012C54.577 28.804 55.149 28.6133 55.6864 28.44C56.2237 28.2493 56.6657 28.0327 57.0124 27.79C57.359 27.5473 57.5324 27.2267 57.5324 26.828V24.93C57.5324 24.3753 57.4457 23.9247 57.2724 23.578C57.1164 23.214 56.8737 22.9453 56.5444 22.772C56.2324 22.5813 55.8337 22.486 55.3484 22.486C54.9844 22.486 54.603 22.538 54.2044 22.642C53.8057 22.746 53.4764 22.9453 53.2164 23.24C53.667 23.3613 54.0137 23.5867 54.2564 23.916C54.5164 24.2453 54.6464 24.644 54.6464 25.112C54.6464 25.6493 54.4644 26.074 54.1004 26.386C53.7537 26.6807 53.3117 26.828 52.7744 26.828C52.2024 26.828 51.769 26.646 51.4744 26.282C51.1797 25.918 51.0324 25.4933 51.0324 25.008C51.0324 24.5227 51.1537 24.124 51.3964 23.812C51.639 23.4827 51.977 23.188 52.4104 22.928C52.8437 22.6333 53.3984 22.3993 54.0744 22.226C54.7504 22.0527 55.487 21.966 56.2844 21.966C57.047 21.966 57.723 22.0527 58.3124 22.226C58.9017 22.382 59.4044 22.668 59.8204 23.084C60.2364 23.4827 60.505 23.9767 60.6264 24.566C60.7477 25.1553 60.8084 25.8747 60.8084 26.724V33.848C60.8084 34.2813 60.8604 34.5933 60.9644 34.784C61.0684 34.9573 61.233 35.044 61.4584 35.044C61.6317 35.044 61.7964 35.0007 61.9524 34.914C62.1084 34.8273 62.2817 34.706 62.4724 34.55L62.7584 34.992C62.377 35.2867 61.9784 35.5207 61.5624 35.694C61.1464 35.8673 60.6437 35.954 60.0544 35.954C59.4477 35.954 58.9624 35.8673 58.5984 35.694C58.2517 35.5207 57.9917 35.2693 57.8184 34.94C57.6624 34.6107 57.5757 34.2207 57.5584 33.77C57.1424 34.4633 56.631 35.0007 56.0244 35.382C55.4177 35.7633 54.6897 35.954 53.8404 35.954ZM55.4004 34.498C55.8164 34.498 56.1977 34.3853 56.5444 34.16C56.9084 33.9347 57.2377 33.5967 57.5324 33.146V27.894C57.359 28.154 57.1077 28.388 56.7784 28.596C56.4664 28.804 56.1284 29.012 55.7644 29.22C55.4004 29.428 55.0537 29.6707 54.7244 29.948C54.4124 30.208 54.1437 30.5373 53.9184 30.936C53.7104 31.3173 53.6064 31.8113 53.6064 32.418C53.6064 33.094 53.771 33.614 54.1004 33.978C54.4297 34.3247 54.863 34.498 55.4004 34.498Z" fill="#FDFDFD"/>
</svg>
